PathFileType	4	(X/Y/Z)	T1_P2_Vision_NoMovement_3_0-731.trc
DataRate	CameraRate	NumFrames	NumMarkers	Units	OrigDataRate	OrigDataStartFrame	OrigNumFrames
60	60	5	27	m	60	639	731
Frame#	Time	RHip			RKnee			RAnkle			RBigToe			RSmallToe			RHeel			LHip			LKnee			LAnkle			LBigToe			LSmallToe			LHeel			Neck			Head			Nose			RShoulder			RElbow			RWrist			RThumb			RIndex			RPinky			LShoulder			LElbow			LWrist			LThumb			LIndex			LPinky		
		X1	Y1	Z1	X2	Y2	Z2	X3	Y3	Z3	X4	Y4	Z4	X5	Y5	Z5	X6	Y6	Z6	X7	Y7	Z7	X8	Y8	Z8	X9	Y9	Z9	X10	Y10	Z10	X11	Y11	Z11	X12	Y12	Z12	X13	Y13	Z13	X14	Y14	Z14	X15	Y15	Z15	X16	Y16	Z16	X17	Y17	Z17	X18	Y18	Z18	X19	Y19	Z19	X20	Y20	Z20	X21	Y21	Z21	X22	Y22	Z22	X23	Y23	Z23	X24	Y24	Z24	X25	Y25	Z25	X26	Y26	Z26	X27	Y27	Z27
640	10.666666666666666	451.2713123569778	3681.4618522726214	650.5305310326424	832.865250458217	3716.9387509253684	647.0883048707545	1207.6765338935927	3733.277017792454	670.3299734690755	1301.579559177901	3662.731668418098	664.4236150625145	1289.7308994139028	3696.6163293338204	607.6873134733771	1277.0238597471625	3811.197551103437	745.5514136167382	464.06424155203115	3622.8386812461663	856.4132748655061	842.986862966427	3605.2289693001217	854.9778599312727	1225.1326130578323	3662.1298276859297	855.0860285638646	1303.2073537451786	3541.575795081335	804.9496305275335	1284.740422638824	3534.2857309591063	848.0008821337999	1273.9838921083624	3722.33125422546	869.4649879463102	-121.44391141274222	3621.2978197745533	754.8267959414015	-387.307627094239	3582.4895146852978	729.263443206906	-235.83193719249323	3526.6998743551485	720.8883071005341	-40.65871100082107	3706.6440268876845	616.894577732412	196.32319047178802	3668.7842921633082	540.8536612550813	360.6601385347798	3552.604506929705	636.2911114997897	425.97091575328136	3518.8178109921873	723.1433903378806	438.36341477710124	3513.1054929586962	732.6708323447816	465.3300339117921	3506.2425069983465	718.542886393593	-33.41635958734071	3579.1438194323323	920.0445001532162	223.05017473885925	3517.0931385747376	925.2650395991925	355.50684195505784	3418.8412098071285	715.047670844206	402.2701511908907	3436.6994477872704	625.29993854145	435.1821013774177	3428.9677055166258	613.5385686116446	467.18222608893666	3474.4011772875615	699.4606874927429
641	10.683333333333334	451.62865489517185	3681.77656743493	650.3723660216684	831.5355666079895	3711.3146003786924	645.3602798031495	1206.7609008688287	3733.7483038893533	670.5262749094029	1299.9835344461303	3662.2054187154563	663.8452878803223	1291.8803355032046	3705.959555526792	610.5118242655874	1274.8336164418502	3809.949918024651	745.1448749465675	464.07330142546107	3618.6493890404026	855.7342836762014	843.038163400254	3606.439973310413	855.3745162473441	1224.3898708343777	3661.9457718461304	854.8322029855178	1303.379370320305	3542.0144646280773	804.7823765220684	1284.1765155131225	3531.908181895167	846.2859001434769	1274.9596704367386	3723.021306223092	869.6683843948074	-121.3699733369676	3621.1782995750336	754.7301976656161	-387.605416814384	3585.4347030629096	733.2114612920884	-235.6063428450672	3521.465177301307	718.0507151787799	-40.26392627267125	3705.5868750320847	616.1852817699005	197.1264278427406	3668.4956013286533	540.7306030355209	360.87513885655005	3551.091584072762	635.972216481382	424.53783726373035	3513.032509906927	721.4840166512365	438.686189325951	3513.126983668649	732.731577753081	464.44728823634733	3499.521597352023	716.6118629236018	-33.47552647574066	3579.767056534081	920.3132931224559	224.13088846007003	3517.6818020900873	925.495608484456	356.11703108329823	3414.9683741548242	713.8204192998169	402.1280042704269	3436.585925580428	624.4829932057328	435.4347174207918	3426.6643319589202	612.6390121037742	468.97777014237045	3474.9914410124975	699.9802784375548
642	10.7	452.0378180284299	3681.0142183655885	649.2562499602934	829.6471435754938	3703.989257202137	642.7968037631028	1205.8054149840348	3733.7012546505666	670.3769073262218	1299.152663364538	3661.963938217688	663.5107233784464	1292.8498608738207	3710.3565260229425	611.8903539184544	1273.1828779111013	3809.3039119759487	744.816531562352	463.64574351037743	3611.024211320528	854.1196133980116	841.0876540839517	3605.6158081801073	855.33976210008	1223.0245037396664	3661.5504223600565	854.4169234476524	1302.7372037836096	3541.9947758891094	804.4408305448849	1284.06805332924	3531.8380872108137	845.4571899661835	1275.0410619313707	3723.6840475489425	870.1182847257078	-121.2977433886828	3621.0814432090465	754.6312634422786	-387.9185748205597	3588.039609349195	736.9752348954959	-235.26298713161546	3513.523041692629	714.1175790859872	-39.63184307772457	3704.9285069038947	615.8317942827376	198.5598331737706	3668.1295004943854	540.5655430055085	361.0639468588463	3552.8567341676853	636.5001833911169	422.2863793072064	3509.6642641235426	720.3981642321588	439.2958081442297	3513.3537940233896	732.886821217706	464.2015203979611	3494.4958912816455	715.2291496643584	-33.44768708690938	3580.096410094574	920.443885167225	224.70332254741248	3518.0910052445774	925.6633616588495	357.18533273284606	3411.442555205759	712.8223821625628	401.2754987987085	3435.4752444740566	622.173259064727	435.47015878606123	3424.7201687915845	611.1324172036209	471.53766112511437	3475.7444533943517	700.5953732595067
643	10.716666666666669	452.10926200010493	3679.3013572356876	647.4269630475911	827.7957578559681	3698.4508432722378	640.4138657848847	1204.7803146265792	3733.2782428739647	670.0339642528875	1299.8807703027014	3662.221226764528	663.706967166544	1291.6178593730065	3707.120663768752	611.1298958854279	1272.486514238561	3809.347729760114	744.6245846877833	462.756673165386	3604.5159731265016	852.3051134828515	837.1590234975833	3600.9936167888795	854.2396198139916	1222.1671182607151	3661.220871177415	854.1507266019605	1302.516077159588	3542.058454932737	804.2762252636703	1283.8834995058714	3533.0758172427045	845.0764671976874	1273.5744765305471	3723.762248862904	870.5663903121848	-121.20772975161842	3620.9878926338115	754.5815664794972	-388.0962949988926	3590.601048202351	740.0348434321105	-234.80197402760248	3502.7846632207466	709.0601247948732	-39.22437720119299	3704.726654939672	615.787429654197	199.92911908157407	3667.989141255505	540.519013918881	361.39194285707947	3556.377036976962	637.481299369246	419.93405645142957	3508.115747281115	719.8846231380587	439.84165309323964	3513.3284956373936	732.8114401920026	464.6823334377017	3492.6202855857023	714.7941725479656	-32.960746705348	3579.7214020672955	920.2141978123746	225.1296211372264	3518.2732710653972	925.7430826269394	357.9453772615469	3409.200421444961	712.3962216832241	399.4788776272032	3432.960357857262	619.0654532731181	434.96524460274736	3422.5943020898685	609.1240650269748	473.89574150569774	3476.3990915850045	701.1032215393202
644	10.733333333333333	451.9188107198984	3677.962306125777	646.4190545695902	826.2777199346499	3695.9605904160467	639.2045086895703	1203.7180664034042	3732.7496634662602	669.6384242092822	1301.3861607110928	3662.60873925791	664.1472974404376	1289.027458089964	3699.548808642955	609.1431150615776	1272.1851777504212	3809.6351544822664	744.463981304382	461.78490270451783	3601.8619371603136	850.6019284401436	832.860999073309	3593.2117465341553	852.0860741294108	1221.8961843222583	3660.8276250698173	853.9635662199115	1303.5248905676197	3542.658467016725	804.492896421795	1283.8055457850985	3533.9401412698476	845.0452057973151	1271.797764657547	3723.3035472851216	870.656162704494	-121.09819171577007	3620.8913136830247	754.5714023861972	-387.77390217967854	3592.421345164318	742.0912063984257	-234.25773384176432	3489.8865170287017	703.6160980504012	-39.10688458519666	3704.9937665198613	616.0532645170246	200.81348244024852	3668.0118149699865	540.5784502530154	361.6498446435796	3558.976154448559	638.1796965189869	417.5211579415068	3506.897907888633	719.8642313436484	439.44512169401435	3512.0770842980305	732.0201943176705	465.00159649924046	3492.6074043620274	714.8430822040164	-31.733221854428955	3578.5002992779846	919.5222646365032	225.76235676420293	3518.419727513326	925.851723684325	358.19450876056555	3408.835527225911	712.6063263752033	397.4251651467682	3430.6401656668163	617.585959615047	434.2586163861006	3422.1532085094946	608.2985878580583	474.7624926019497	3476.6205167977287	701.2510864923877
